<svg width="100" height="110" viewBox="0 0 100 110" fill="none" xmlns="http://www.w3.org/2000/svg">
<g clip-path="url(#clip0_769_36714)">
<line x1="50.5" y1="52.5" x2="50.5" y2="64.5" stroke="#808080" stroke-linecap="round" stroke-dasharray="0.1 2"/>
<line x1="11.2903" y1="52.5" x2="11.2903" y2="64.5" stroke="#808080" stroke-linecap="round" stroke-dasharray="0.1 2"/>
<line x1="51.2903" y1="83.5" x2="51.2903" y2="109.5" stroke="#808080" stroke-linecap="round" stroke-dasharray="0.1 2"/>
<line x1="11.2903" y1="83.5" x2="11.2903" y2="108.5" stroke="#808080" stroke-linecap="round" stroke-dasharray="0.1 2"/>
<path d="M50.9671 100.177C51.0647 100.079 51.0647 99.9209 50.9671 99.8232L49.3761 98.2322C49.2784 98.1346 49.1201 98.1346 49.0225 98.2322C48.9249 98.3299 48.9249 98.4882 49.0225 98.5858L50.4367 100L49.0225 101.414C48.9249 101.512 48.9249 101.67 49.0225 101.768C49.1201 101.865 49.2784 101.865 49.3761 101.768L50.9671 100.177ZM11.6135 99.8232C11.5159 99.9209 11.5159 100.079 11.6135 100.177L13.2045 101.768C13.3021 101.865 13.4604 101.865 13.5581 101.768C13.6557 101.67 13.6557 101.512 13.5581 101.414L12.1438 100L13.5581 98.5858C13.6557 98.4882 13.6557 98.3299 13.5581 98.2322C13.4604 98.1346 13.3021 98.1346 13.2045 98.2322L11.6135 99.8232ZM50.7903 99.75H11.7903V100.25H50.7903V99.75Z" fill="#808080"/>
<path d="M16.5906 29.0548L45.4666 49.5979L11.2364 40.4257C12.428 36.3722 14.2252 32.5556 16.5906 29.0548ZM16.3456 27.6533C13.4443 31.7315 11.2953 36.2954 10 41.1297L50.5685 52.0002L16.3456 27.6533V27.6533Z" fill="black"/>
<path d="M27.4624 17.5275L48.6327 49.9498L17.4772 26.9559C20.2664 23.2694 23.6222 20.1008 27.4624 17.5275M27.6061 16.833C23.4154 19.5693 19.7476 23.0326 16.7756 27.0595L50.5684 51.9999L27.6061 16.833V16.833Z" fill="#999999"/>
<path d="M41.6538 11.469L49.5155 49.3842L28.9143 16.5976C32.8576 14.185 37.1389 12.4614 41.6538 11.469M42.0413 10.875C37.1407 11.8911 32.4611 13.775 28.2234 16.4377L50.5685 51.9998L42.0413 10.875V10.875Z" fill="#999999"/>
<path d="M50.5685 10.5C52.7419 10.5 54.929 10.6727 57.0776 11.0137L50.5438 49.18L43.3451 11.1335C45.7254 10.713 48.1528 10.5 50.5685 10.5ZM50.5685 10C47.9536 10 45.3397 10.2441 42.7603 10.7322L50.5684 51.9995L57.6553 10.6022C55.3098 10.2007 52.9387 10 50.5684 10H50.5685Z" fill="#999999"/>
<path d="M58.7744 11.3196C63.3059 12.233 67.6167 13.8816 71.6015 16.2251L51.5756 49.3663L58.7744 11.3196ZM58.3766 10.7324L50.5685 51.9999V51.9999L72.2895 16.0532C68.0059 13.4648 63.2942 11.6629 58.3766 10.7324H58.3766Z" fill="#999999"/>
<path d="M73.0694 17.1294C76.954 19.6352 80.3644 22.7448 83.2174 26.382L52.4682 49.9158L73.0694 17.1294ZM72.9137 16.4375L50.5685 51.9994L83.9207 26.4734C80.879 22.499 77.1514 19.1002 72.9137 16.4375V16.4375Z" fill="#999999"/>
<path d="M84.2538 27.7606C86.9542 31.5124 88.9927 35.653 90.3195 40.0811L53.0981 50.7547L84.2538 27.7606ZM84.3616 27.0596L50.5685 52.0002L90.9407 40.4231C89.5615 35.6121 87.3334 31.0864 84.3615 27.0596L84.3616 27.0596Z" fill="#999999"/>
<path d="M42 7.32627C48.2246 5.6584 53.5131 5.6009 59.1998 7.5" stroke="black" stroke-width="0.5" stroke-miterlimit="10" stroke-linecap="round"/>
<mask id="path-14-inside-1_769_36714" fill="white">
<path d="M58.2247 5.04274L57.8149 5.28996L59.035 7.3075L56.9334 8.37705L57.1509 8.80337L59.7101 7.50029L58.2247 5.04274Z"/>
</mask>
<path d="M58.2247 5.04274L57.8149 5.28996L59.035 7.3075L56.9334 8.37705L57.1509 8.80337L59.7101 7.50029L58.2247 5.04274Z" fill="black" stroke="black" stroke-width="2" mask="url(#path-14-inside-1_769_36714)"/>
<path d="M18.1768 37.1768C18.2744 37.0791 18.2744 36.9209 18.1768 36.8232L16.5858 35.2322C16.4882 35.1346 16.3299 35.1346 16.2322 35.2322C16.1346 35.3299 16.1346 35.4882 16.2322 35.5858L17.6464 37L16.2322 38.4142C16.1346 38.5118 16.1346 38.6701 16.2322 38.7678C16.3299 38.8654 16.4882 38.8654 16.5858 38.7678L18.1768 37.1768ZM-0.25 0V32H0.25V0H-0.25ZM5 37.25H18V36.75H5V37.25ZM-0.25 32C-0.25 34.8995 2.10051 37.25 5 37.25V36.75C2.37665 36.75 0.25 34.6234 0.25 32H-0.25Z" fill="black"/>
<path d="M99.8232 -0.176777C99.9209 -0.274408 100.079 -0.274408 100.177 -0.176777L101.768 1.41421C101.865 1.51184 101.865 1.67014 101.768 1.76777C101.67 1.8654 101.512 1.8654 101.414 1.76777L100 0.353553L98.5858 1.76777C98.4882 1.8654 98.3299 1.8654 98.2322 1.76777C98.1346 1.67014 98.1346 1.51184 98.2322 1.41421L99.8232 -0.176777ZM100.25 3.94854e-08L100.25 32L99.75 32L99.75 -3.94854e-08L100.25 3.94854e-08ZM95 37.25L84 37.25L84 36.75L95 36.75L95 37.25ZM100.25 32C100.25 34.8995 97.8995 37.25 95 37.25L95 36.75C97.6234 36.75 99.75 34.6234 99.75 32L100.25 32Z" fill="black"/>
</g>
<defs>
<clipPath id="clip0_769_36714">
<rect width="100" height="110" fill="white"/>
</clipPath>
</defs>
</svg>
