<?xml version="1.0" encoding="utf-8"?>
<!-- Generator: Adobe Illustrator 26.2.1, SVG Export Plug-In . SVG Version: 6.00 Build 0)  -->
<svg version="1.1" xmlns="http://www.w3.org/2000/svg" xmlns:xlink="http://www.w3.org/1999/xlink" x="0px" y="0px"
	 viewBox="0 0 100 110" style="enable-background:new 0 0 100 110;" xml:space="preserve">
<style type="text/css">
	.st0{display:none;}
	.st1{display:inline;fill:none;}
	.st2{display:inline;fill:none;stroke:#808080;stroke-linecap:round;stroke-dasharray:0.1,2;}
	.st3{display:inline;fill:#808080;}
	.st4{display:inline;}
	.st5{display:inline;fill:#999999;}
	.st6{display:inline;fill:none;stroke:#000000;stroke-width:0.5;stroke-linecap:round;stroke-miterlimit:10;}
	.st7{display:inline;fill:#FFFFFF;filter:url(#Adobe_OpacityMaskFilter);}
	
		.st8{display:inline;mask:url(#path-14-inside-1_769_36714_00000013188351081468255040000018032859806193806248_);stroke:#000000;stroke-width:2;}
	.st9{fill:#999999;}
	.st10{fill:none;stroke:#000000;stroke-linecap:round;stroke-linejoin:round;stroke-miterlimit:10;}
	.st11{fill:none;stroke:#999999;stroke-linecap:round;stroke-miterlimit:10;stroke-dasharray:1,2;}
	.st12{fill:none;stroke:#000000;stroke-linecap:round;stroke-miterlimit:10;}
</style>
<g id="Layer_1" class="st0">
	<rect class="st1" width="100" height="110"/>
	<line class="st2" x1="50.5" y1="52.5" x2="50.5" y2="64.5"/>
	<line class="st2" x1="11.3" y1="52.5" x2="11.3" y2="64.5"/>
	<line class="st2" x1="51.3" y1="83.5" x2="51.3" y2="109.5"/>
	<line class="st2" x1="11.3" y1="83.5" x2="11.3" y2="108.5"/>
	<path class="st3" d="M51,100.2c0.1-0.1,0.1-0.3,0-0.4l-1.6-1.6c-0.1-0.1-0.3-0.1-0.4,0c-0.1,0.1-0.1,0.3,0,0.4l1.4,1.4l-1.4,1.4
		c-0.1,0.1-0.1,0.3,0,0.4c0.1,0.1,0.3,0.1,0.4,0L51,100.2z M11.6,99.8c-0.1,0.1-0.1,0.3,0,0.4l1.6,1.6c0.1,0.1,0.3,0.1,0.4,0
		c0.1-0.1,0.1-0.3,0-0.4l-1.4-1.4l1.4-1.4c0.1-0.1,0.1-0.3,0-0.4c-0.1-0.1-0.3-0.1-0.4,0L11.6,99.8z M50.8,99.8h-39v0.5h39V99.8z"/>
	<path class="st4" d="M16.6,29.1l28.9,20.5l-34.2-9.2C12.4,36.4,14.2,32.6,16.6,29.1z M16.3,27.7c-2.9,4.1-5.1,8.6-6.3,13.5L50.6,52
		L16.3,27.7L16.3,27.7z"/>
	<path class="st5" d="M27.5,17.5l21.2,32.4L17.5,27C20.3,23.3,23.6,20.1,27.5,17.5 M27.6,16.8c-4.2,2.7-7.9,6.2-10.8,10.2L50.6,52
		L27.6,16.8L27.6,16.8z"/>
	<path class="st5" d="M41.7,11.5l7.9,37.9L28.9,16.6C32.9,14.2,37.1,12.5,41.7,11.5 M42,10.9c-4.9,1-9.6,2.9-13.8,5.6L50.6,52
		L42,10.9L42,10.9z"/>
	<path class="st5" d="M50.6,10.5c2.2,0,4.4,0.2,6.5,0.5l-6.5,38.2l-7.2-38C45.7,10.7,48.2,10.5,50.6,10.5z M50.6,10
		c-2.6,0-5.2,0.2-7.8,0.7L50.6,52l7.1-41.4C55.3,10.2,52.9,10,50.6,10L50.6,10z"/>
	<path class="st5" d="M58.8,11.3c4.5,0.9,8.8,2.6,12.8,4.9l-20,33.1L58.8,11.3z M58.4,10.7L50.6,52l0,0l21.7-35.9
		C68,13.5,63.3,11.7,58.4,10.7L58.4,10.7z"/>
	<path class="st5" d="M73.1,17.1c3.9,2.5,7.3,5.6,10.1,9.3L52.5,49.9L73.1,17.1z M72.9,16.4L50.6,52l33.4-25.5
		C80.9,22.5,77.2,19.1,72.9,16.4L72.9,16.4z"/>
	<path class="st5" d="M84.3,27.8c2.7,3.8,4.7,7.9,6.1,12.3L53.1,50.8L84.3,27.8z M84.4,27.1L50.6,52l40.4-11.6
		C89.6,35.6,87.3,31.1,84.4,27.1L84.4,27.1z"/>
	<path class="st6" d="M42,7.3c6.2-1.7,11.5-1.7,17.2,0.2"/>
	<defs>
		<filter id="Adobe_OpacityMaskFilter" filterUnits="userSpaceOnUse" x="55.6" y="3.7" width="5.5" height="6.5">
			<feColorMatrix  type="matrix" values="1 0 0 0 0  0 1 0 0 0  0 0 1 0 0  0 0 0 1 0"/>
		</filter>
	</defs>
	
		<mask maskUnits="userSpaceOnUse" x="55.6" y="3.7" width="5.5" height="6.5" id="path-14-inside-1_769_36714_00000013188351081468255040000018032859806193806248_" class="st4">
		<path style="fill:#FFFFFF;filter:url(#Adobe_OpacityMaskFilter);" d="M58.2,5l-0.4,0.2l1.2,2l-2.1,1.1l0.2,0.4l2.6-1.3L58.2,5z"/>
	</mask>
	<path class="st8" d="M58.2,5l-0.4,0.2l1.2,2l-2.1,1.1l0.2,0.4l2.6-1.3L58.2,5z"/>
	<path class="st4" d="M99.8-0.2c0.1-0.1,0.3-0.1,0.4,0l1.6,1.6c0.1,0.1,0.1,0.3,0,0.4c-0.1,0.1-0.3,0.1-0.4,0L100,0.4l-1.4,1.4
		c-0.1,0.1-0.3,0.1-0.4,0c-0.1-0.1-0.1-0.3,0-0.4L99.8-0.2z M100.2,0v32h-0.5V0L100.2,0z M95,37.2H84v-0.5h11V37.2z M100.2,32
		c0,2.9-2.4,5.2-5.2,5.2v-0.5c2.6,0,4.8-2.1,4.8-4.8H100.2z"/>
</g>
<g id="Layer_2">
	<g id="v-Lombardia" transform="translate(359.4685652115882, 82.49498877063047) scale(0.7641882603825831)">
		<g>
			<path d="M-448.8-68.4l23.3,16.6l6.9,4.9l0.1,0.1l-0.1,0l-8.2-2.2l-27.6-7.4C-453.1-60.6-451.2-64.6-448.8-68.4 M-449.5-72.1
				c-3.8,5.3-6.5,11.2-8.2,17.5l30.2,8.1l8.2,2.2l14.1,3.8l-11.9-8.5l-6.9-4.9L-449.5-72.1L-449.5-72.1z"/>
		</g>
		<g>
			<path class="st9" d="M-435.3-84.3l16.4,25.1l4.6,7.1l4,6.2l-5.9-4.4l-6.8-5l-24.1-17.8C-443.8-77.4-439.8-81.2-435.3-84.3
				 M-434.9-86.1c-5.4,3.5-10.2,8-14,13.2l25.2,18.6l6.8,5l11.8,8.7l-8-12.3l-4.6-7.1L-434.9-86.1L-434.9-86.1z"/>
		</g>
		<g>
			<path class="st9" d="M-417.2-92.2l6.1,29.3l1.7,8.3l1.5,7.2l-3.9-6.2l-4.5-7.2l-15.9-25.4C-427.6-89-422.6-91-417.2-92.2
				 M-416.2-93.8c-6.3,1.3-12.4,3.8-17.9,7.2l16.6,26.5l4.5,7.2l7.8,12.4l-3-14.3l-1.7-8.3L-416.2-93.8L-416.2-93.8z"/>
		</g>
		<g>
			<path class="st9" d="M-405.2-93.6c2.6,0,5.1,0.2,7.7,0.6l-5.1,29.5l-1.4,8.4l-1.2,7.3l-1.4-7.2l-1.6-8.3l-5.6-29.4
				C-410.9-93.4-408.1-93.6-405.2-93.6 M-405.2-94.9c-3.4,0-6.8,0.3-10.1,0.9l5.8,30.7l1.6,8.3l2.7,14.4l2.5-14.4l1.4-8.4l5.3-30.8
				C-399-94.7-402.1-94.9-405.2-94.9L-405.2-94.9z"/>
		</g>
		<g>
			<path class="st9" d="M-394-92.4c5.3,1.1,10.4,3.1,15.2,5.8L-394.4-61l-4.4,7.3l-3.8,6.3l1.4-7.2l1.6-8.3L-394-92.4 M-395.1-94
				l-5.8,30.7l-1.6,8.3l-2.7,14.4l7.6-12.5l4.4-7.3l16.2-26.8C-382.6-90.4-388.7-92.8-395.1-94L-395.1-94z"/>
		</g>
		<g>
			<path class="st9" d="M-375.8-84.8c4.6,3,8.6,6.7,12,10.9l-23.8,18.2l-6.7,5.2l-5.9,4.5l3.9-6.2l4.5-7.2L-375.8-84.8 M-376.2-86.6
				l-16.6,26.5l-4.5,7.2l-7.8,12.4l11.6-8.9l6.7-5.2l24.8-19C-365.9-78.7-370.8-83.1-376.2-86.6L-376.2-86.6z"/>
		</g>
		<g>
			<path class="st9" d="M-361.7-71c3.1,4.5,5.5,9.4,7.2,14.6l-28.8,8.3l-8.1,2.3l-7.1,2l5.9-4.4l6.8-5L-361.7-71 M-361.4-72.8
				l-25.2,18.6l-6.8,5l-11.8,8.7l14.1-4l8.1-2.3l30.1-8.6C-354.7-61.8-357.6-67.6-361.4-72.8L-361.4-72.8z"/>
		</g>
	</g>
	<polyline class="st10" points="45.5,92.8 48.5,95.8 45.5,98.8 	"/>
	<polyline class="st10" points="15.7,98.8 12.7,95.8 15.7,92.8 	"/>
	<polyline class="st10" points="92.6,4 95.6,1 98.6,4 	"/>
	<g>
		<polyline class="st10" points="64.5,3.2 66.2,7.1 62.3,8.7 		"/>
		<path class="st10" d="M66.2,7.1c-0.3-0.2-0.7-0.3-1.1-0.4C54.5,2.4,43.2,2.9,33.5,7.1"/>
	</g>
	<line class="st11" x1="50" y1="52.5" x2="50" y2="64.5"/>
	<line class="st11" x1="11.2" y1="52.5" x2="11.2" y2="64.5"/>
	<line class="st11" x1="50" y1="83.1" x2="50" y2="108.5"/>
	<line class="st11" x1="11.2" y1="83.1" x2="11.2" y2="108.5"/>
	<line class="st10" x1="12.7" y1="95.8" x2="48.5" y2="95.8"/>
	<path class="st12" d="M78.5,37.1l8.4-4.2c5.3-2.7,8.7-8.1,8.7-14.1V1"/>
	<path class="st12" d="M19.1,37.1l-8.4-4.2C5.4,30.2,2,24.7,2,18.8V1"/>
	<polyline class="st10" points="17.6,32.4 19.1,37.1 14.3,38.7 	"/>
</g>
</svg>
