<svg width="126" height="206" viewBox="0 0 126 206" fill="none" xmlns="http://www.w3.org/2000/svg">
<g clip-path="url(#clip0_729_36755)">
<rect width="125" height="205.178" transform="translate(0.225586 0.748047)" fill="white"/>
<path d="M107.726 46.0642C101.066 21.2114 75.5207 6.46265 50.6679 13.1219C34.5909 17.4297 22.0334 29.9873 17.7256 46.0642" fill="url(#paint0_linear_729_36755)"/>
<path d="M62.7256 58.1222L41.3126 42.8887C39.4973 45.4403 38.1527 48.2959 37.3422 51.3207L62.7256 58.1222Z" fill="#22B8B4"/>
<path d="M41.3127 42.8883L38.4456 40.8486C36.3873 43.742 34.8626 46.9799 33.9436 50.4097L37.3423 51.3204C38.1528 48.2956 39.4974 45.44 41.3127 42.8883V42.8883Z" fill="#F8FF0E"/>
<path d="M38.4455 40.8492L24.7643 31.1162C21.5462 35.6398 19.1624 40.7023 17.7256 46.0647L33.9435 50.4102C34.8625 46.9804 36.3871 43.7425 38.4455 40.8492V40.8492Z" fill="#C3C5C3"/>
<path d="M62.7255 58.1222L48.3581 36.1187C45.736 37.8307 43.4411 39.9977 41.5815 42.5173L62.7255 58.1222Z" fill="#22B8B4"/>
<path d="M48.3581 36.118L46.4344 33.1719C43.4613 35.1132 40.8591 37.5703 38.7505 40.4272L41.5816 42.5166C43.4411 39.997 45.7361 37.8301 48.3581 36.118H48.3581Z" fill="#F8FF0E"/>
<path d="M46.4345 33.1727L37.2549 19.1143C32.6066 22.1495 28.5381 25.991 25.2415 30.4578L38.7507 40.4281C40.8592 37.5711 43.4614 35.114 46.4345 33.1727V33.1727Z" fill="#C3C5C3"/>
<path d="M62.7255 58.1221L57.3901 32.3906C54.3238 33.0264 51.3958 34.2051 48.7443 35.8712L62.7255 58.1221Z" fill="#22B8B4"/>
<path d="M57.3902 32.3896L56.6758 28.9443C53.199 29.6653 49.879 31.0018 46.8724 32.8909L48.7444 35.8702C51.3959 34.2041 54.3239 33.0254 57.3902 32.3896H57.3902Z" fill="#F8FF0E"/>
<path d="M56.6758 28.9447L53.2669 12.5044C47.8309 13.6315 42.6402 15.7212 37.9396 18.6748L46.8724 32.8913C49.8789 31.0022 53.1989 29.6656 56.6758 28.9447H56.6758Z" fill="#C3C5C3"/>
<path d="M62.7255 58.1211L67.1596 32.2191C64.073 31.6907 60.9168 31.7182 57.8399 32.3004L62.7254 58.1211H62.7255Z" fill="#22B8B4"/>
<path d="M67.1596 32.2191L67.7533 28.751C64.2535 28.1518 60.6747 28.1831 57.1858 28.8432L57.8399 32.3004C60.9168 31.7182 64.073 31.6907 67.1596 32.2191H67.1596Z" fill="#F8FF0E"/>
<path d="M67.7536 28.7509L70.5867 12.2017C65.1147 11.2649 59.5194 11.3138 54.0646 12.3459L57.186 28.8432C60.6749 28.183 64.2537 28.1518 67.7536 28.7509Z" fill="#C3C5C3"/>
<path d="M62.7256 58.123L76.3163 35.6314C73.6361 34.0119 70.688 32.8844 67.6111 32.3022L62.7256 58.123V58.123Z" fill="#22B8B4"/>
<path d="M76.3164 35.6301L78.1361 32.6187C75.0971 30.7823 71.7542 29.5039 68.2654 28.8438L67.6112 32.301C70.6881 32.8832 73.6362 34.0106 76.3164 35.6301V35.6301Z" fill="#F8FF0E"/>
<path d="M78.136 32.6194L86.8194 18.2491C82.0679 15.378 76.8415 13.3793 71.3867 12.3472L68.2653 28.8445C71.7541 29.5046 75.097 30.783 78.136 32.6194V32.6194Z" fill="#C3C5C3"/>
<path d="M62.7256 58.1206L83.5939 42.149C81.6907 39.6623 79.3583 37.5357 76.7068 35.8696L62.7256 58.1206V58.1206Z" fill="#22B8B4"/>
<path d="M83.5939 42.1498L86.388 40.0113C84.2299 37.1916 81.5852 34.7803 78.5787 32.8911L76.7067 35.8704C79.3582 37.5364 81.6906 39.663 83.5939 42.1498H83.5939Z" fill="#F8FF0E"/>
<path d="M86.388 40.012L99.7212 29.8075C96.3471 25.3989 92.2122 21.6289 87.5116 18.6753L78.5787 32.8918C81.5853 34.7809 84.23 37.1922 86.388 40.012Z" fill="#C3C5C3"/>
<path d="M62.7256 58.1215L87.9865 50.8781C87.1233 47.8679 85.7291 45.0362 83.8695 42.5166L62.7256 58.1215V58.1215Z" fill="#22B8B4"/>
<path d="M87.9864 50.8786L91.3687 49.9088C90.3899 46.4955 88.809 43.2847 86.7005 40.4277L83.8694 42.5171C85.729 45.0367 87.1232 47.8684 87.9864 50.8786V50.8786Z" fill="#F8FF0E"/>
<path d="M91.3688 49.9088L107.508 45.2808C105.978 39.9443 103.506 34.9243 100.21 30.4575L86.7006 40.4278C88.8091 43.2847 90.39 46.4955 91.3687 49.9088L91.3688 49.9088Z" fill="#C3C5C3"/>
<path d="M80.2623 6.05944L76.27 1.88873L74.6542 7.43152L80.2623 6.05944ZM46.619 5.23797C46.3523 5.30944 46.194 5.58361 46.2655 5.85034C46.3369 6.11707 46.6111 6.27537 46.8778 6.20389L46.619 5.23797ZM76.0621 4.31464C66.472 1.93238 57.2218 2.39695 46.619 5.23797L46.8778 6.20389C57.3544 3.3967 66.4291 2.95211 75.821 5.28515L76.0621 4.31464Z" fill="#808080"/>
<path d="M31.6029 193.972C30.8467 189.849 30.8046 185.627 31.4785 181.49L66.1783 187.386L31.6029 193.972Z" fill="#22B8B4" stroke="#009EB6" stroke-width="0.5"/>
<path d="M18.436 175.955C17.4327 170.264 17.4257 164.441 18.4152 158.747L66.1782 167.293L18.436 175.955Z" fill="#F8FF0E" stroke="#C6CC0B" stroke-width="0.5"/>
<path d="M67.588 143.175L31.3462 136.589C30.5613 140.908 30.5547 145.332 31.3266 149.653L67.588 143.175Z" fill="#C3C5C3"/>
<path d="M31.346 136.588L26.4935 135.706C25.6035 140.603 25.596 145.62 26.4713 150.52L31.3265 149.652C30.5546 145.331 30.5612 140.907 31.346 136.588V136.588Z" fill="#C3C5C3"/>
<path d="M26.4938 135.708L3.33826 131.5C1.94686 139.156 1.9351 146.999 3.30356 154.66L26.4716 150.521C25.5963 145.621 25.6038 140.605 26.4938 135.708V135.708Z" fill="#C3C5C3"/>
<line x1="66.624" y1="142.838" x2="66.624" y2="202.926" stroke="#C3C5C3" stroke-dasharray="1 1"/>
<line x1="30.6974" y1="195.448" x2="30.6974" y2="202.926" stroke="#C3C5C3" stroke-dasharray="1 1"/>
<line x1="18.6217" y1="177.607" x2="18.6217" y2="202.927" stroke="#C3C5C3" stroke-dasharray="1 1"/>
<line x1="2.74512" y1="155.699" x2="2.74512" y2="202.926" stroke="#C3C5C3" stroke-dasharray="1 1"/>
<path d="M67.7707 203.103C67.8683 203.005 67.8683 202.847 67.7707 202.749L66.1797 201.159C66.0821 201.061 65.9238 201.061 65.8262 201.159C65.7285 201.256 65.7285 201.414 65.8262 201.512L67.2404 202.926L65.8262 204.34C65.7285 204.438 65.7285 204.596 65.8262 204.694C65.9238 204.792 66.0821 204.792 66.1797 204.694L67.7707 203.103ZM1.48771 202.749C1.39008 202.847 1.39008 203.005 1.48771 203.103L3.0787 204.694C3.17633 204.792 3.33463 204.792 3.43226 204.694C3.52989 204.596 3.52989 204.438 3.43226 204.34L2.01804 202.926L3.43226 201.512C3.52989 201.414 3.52989 201.256 3.43226 201.159C3.33463 201.061 3.17633 201.061 3.0787 201.159L1.48771 202.749ZM67.5939 202.676L1.66449 202.676L1.66449 203.176L67.5939 203.176L67.5939 202.676Z" fill="#808080"/>
</g>
<defs>
<linearGradient id="paint0_linear_729_36755" x1="62.7268" y1="11.5234" x2="62.7268" y2="46.0647" gradientUnits="userSpaceOnUse">
<stop stop-color="white" stop-opacity="0.75"/>
<stop offset="1" stop-color="white" stop-opacity="0"/>
</linearGradient>
<clipPath id="clip0_729_36755">
<rect width="125" height="205.178" fill="white" transform="translate(0.225586 0.748047)"/>
</clipPath>
</defs>
</svg>
