<svg width="149" height="66" viewBox="0 0 149 66" fill="none" xmlns="http://www.w3.org/2000/svg">
<g clip-path="url(#clip0_885_37090)">
<path d="M14.1135 29.9831L32.0198 42.6526L37.3276 46.408L37.3969 46.457L37.3147 46.4351L31.0228 44.7584L9.79627 39.1018C10.8391 35.8855 12.2851 32.8314 14.1135 29.9831ZM13.5996 27.165C10.7123 31.2013 8.57379 35.7183 7.28473 40.503L30.5023 46.6903L36.7942 48.367L47.6566 51.2617L38.4933 44.7783L33.1856 41.0229L13.5996 27.165V27.165Z" fill="black"/>
<path d="M24.5199 17.8503L37.1051 37.0193L40.6663 42.4437L43.7637 47.1615L39.2055 43.8157L33.9644 39.9687L15.4434 26.374C18.0169 23.0774 21.0632 20.2167 24.5199 17.8503M24.8054 16.4561C20.6351 19.1643 16.985 22.592 14.0275 26.5776L33.3674 40.7733L38.6084 44.6203L47.6565 51.2617L41.5082 41.897L37.9469 36.4726L24.8054 16.4561V16.4561Z" fill="#999999"/>
<path d="M38.3928 11.7532L43.0663 34.17L44.3888 40.5134L45.539 46.0305L42.525 41.2597L39.0593 35.7744L26.8126 16.3898C30.4191 14.2561 34.3056 12.7 38.3928 11.7532M39.1707 10.5591C34.2938 11.5648 29.6369 13.4293 25.4197 16.0648L38.208 36.3064L41.6736 41.7918L47.6566 51.2617L45.3733 40.3104L44.0508 33.967L39.1707 10.5591V10.5591Z" fill="#999999"/>
<path d="M47.6567 10.6934C49.6218 10.6934 51.5984 10.8362 53.5462 11.1185L49.6622 33.6837L48.563 40.0691L47.6071 45.6227L46.5539 40.0866L45.3429 33.7211L41.0634 11.2269C43.2404 10.8726 45.4535 10.6934 47.6567 10.6934ZM47.6567 9.69336C45.0545 9.69336 42.4532 9.935 39.8862 10.418L44.3549 33.9071L45.5659 40.2725L47.6566 51.2618L49.5541 40.2379L50.6532 33.8524L54.709 10.2894C52.3749 9.89197 50.0154 9.69336 47.6567 9.69336V9.69336Z" fill="#999999"/>
<path d="M56.2257 11.5984C60.3287 12.4741 64.2418 13.9625 67.8854 16.0333L55.9806 35.6274L52.6118 41.1721L49.6819 45.9945L50.7352 40.4583L51.9461 34.0929L56.2257 11.5984ZM55.4269 10.418L50.9582 33.907L49.7472 40.2724L47.6566 51.2617L53.4724 41.6893L56.8412 36.1446L69.2723 15.6841C65.0095 13.1223 60.3207 11.3389 55.4269 10.418H55.4269Z" fill="#999999"/>
<path d="M70.2033 17.454C73.7011 19.7601 76.797 22.5674 79.428 25.8189L61.1484 39.733L55.9757 43.6703L51.4768 47.0948L54.4909 42.324L57.9564 36.8386L70.2033 17.454ZM69.8934 16.0649L57.1051 36.3065L53.6395 41.7919L47.6566 51.2619L56.5868 44.4644L61.7595 40.5271L80.8473 25.9978C77.8202 22.0642 74.1105 18.7004 69.8934 16.0649V16.0649Z" fill="#999999"/>
<path d="M81.0646 27.9828C83.4735 31.4003 85.3242 35.1387 86.579 39.1216L64.4508 45.4322L58.1893 47.2178L52.7434 48.7709L57.3017 45.4251L62.5427 41.5781L81.0646 27.9828M81.2864 26.5772L61.9456 40.7735L56.7046 44.6205L47.6566 51.2619L58.4664 48.1791L64.7279 46.3934L87.8345 39.8038C86.4615 35.0421 84.244 30.5628 81.2864 26.5771V26.5772Z" fill="#999999"/>
<path d="M63.6254 3.37012L65.2922 7.27549L61.3655 8.93322" stroke="black" stroke-linecap="round" stroke-linejoin="round"/>
<path d="M65.286 7.28974C64.936 7.13788 64.5829 6.99034 64.2267 6.84721C53.5756 2.56732 42.1791 3.04727 32.4205 7.28082" fill="white"/>
<path d="M65.286 7.28974C64.936 7.13788 64.5829 6.99034 64.2267 6.84721C53.5756 2.56732 42.1791 3.04727 32.4205 7.28082" stroke="black" stroke-linecap="round" stroke-linejoin="round" fill="white"/>
<g clip-path="url(#clip1_885_37090)">
<path d="M43.9317 56.2646L47.2121 59.6932L43.9317 63.1218" stroke="black" stroke-linecap="round" stroke-linejoin="round"/>
<path d="M11.3668 63.1218L8.08649 59.6932L11.3668 56.2646" stroke="black" stroke-linecap="round" stroke-linejoin="round"/>
<path d="M8.08649 59.6934H47.2121" stroke="black" stroke-linecap="round" stroke-linejoin="round"/>
</g>
<path d="M54.059 62.6934L55.418 56.2674H56.273L58.244 61.5774H58.271C58.301 61.3614 58.343 61.0884 58.397 60.7584C58.457 60.4224 58.52 60.1044 58.586 59.8044L59.342 56.2674H60.107L58.748 62.6934H57.893L55.904 57.3654H55.877C55.865 57.4914 55.841 57.6564 55.805 57.8604C55.775 58.0644 55.736 58.2834 55.688 58.5174C55.646 58.7514 55.601 58.9794 55.553 59.2014L54.815 62.6934H54.059ZM61.7633 62.7834C61.3973 62.7834 61.1033 62.6814 60.8813 62.4774C60.6653 62.2734 60.5573 61.9764 60.5573 61.5864C60.5573 61.4484 60.5663 61.3194 60.5843 61.1994C60.6083 61.0734 60.6323 60.9444 60.6563 60.8124L61.2863 57.8694H62.0873L61.4393 60.9024C61.3853 61.1604 61.3583 61.3614 61.3583 61.5054C61.3583 61.6974 61.4063 61.8504 61.5023 61.9644C61.6043 62.0724 61.7663 62.1264 61.9883 62.1264C62.1923 62.1264 62.4113 62.0544 62.6453 61.9104C62.8853 61.7664 63.1073 61.5354 63.3113 61.2174C63.5153 60.8994 63.6743 60.4764 63.7883 59.9484L64.2293 57.8694H65.0123L63.9863 62.6934H63.3383L63.4373 61.8024H63.3923C63.2783 61.9464 63.1433 62.0964 62.9873 62.2524C62.8373 62.4024 62.6603 62.5284 62.4563 62.6304C62.2583 62.7324 62.0273 62.7834 61.7633 62.7834ZM65.5262 62.6934L66.5522 57.8694H67.2002L67.1012 58.7604H67.1462C67.2542 58.6104 67.3802 58.4604 67.5242 58.3104C67.6742 58.1604 67.8452 58.0344 68.0372 57.9324C68.2352 57.8304 68.4572 57.7794 68.7032 57.7794C69.0332 57.7794 69.2852 57.8754 69.4592 58.0674C69.6392 58.2534 69.7472 58.5144 69.7832 58.8504H69.8192C69.9392 58.6704 70.0802 58.4994 70.2422 58.3374C70.4102 58.1754 70.5962 58.0434 70.8002 57.9414C71.0042 57.8334 71.2292 57.7794 71.4752 57.7794C71.8472 57.7794 72.1352 57.8814 72.3392 58.0854C72.5432 58.2894 72.6452 58.5834 72.6452 58.9674C72.6452 59.1114 72.6362 59.2464 72.6182 59.3724C72.6002 59.4924 72.5762 59.6214 72.5462 59.7594L71.9252 62.6934H71.1242L71.7722 59.6694C71.8022 59.5314 71.8232 59.4144 71.8352 59.3184C71.8472 59.2224 71.8532 59.1294 71.8532 59.0394C71.8532 58.8594 71.8022 58.7154 71.7002 58.6074C71.6042 58.4994 71.4512 58.4454 71.2412 58.4454C71.0492 58.4454 70.8422 58.5174 70.6202 58.6614C70.4042 58.8054 70.2002 59.0304 70.0082 59.3364C69.8222 59.6364 69.6782 60.0294 69.5762 60.5154L69.1172 62.6934H68.3252L68.9642 59.6694C69.0182 59.3994 69.0452 59.2014 69.0452 59.0754C69.0452 58.8774 69.0002 58.7244 68.9102 58.6164C68.8202 58.5024 68.6702 58.4454 68.4602 58.4454C68.2682 58.4454 68.0612 58.5174 67.8392 58.6614C67.6172 58.7994 67.4102 59.0274 67.2182 59.3454C67.0262 59.6634 66.8732 60.0864 66.7592 60.6144L66.3182 62.6934H65.5262ZM75.5702 62.7834C75.2462 62.7834 74.9822 62.7024 74.7782 62.5404C74.5802 62.3724 74.4332 62.1774 74.3372 61.9554H74.2922L73.9952 62.6934H73.4012L74.8502 55.8534H75.6422L75.3002 57.4734C75.2582 57.6774 75.2102 57.8784 75.1562 58.0764C75.1082 58.2684 75.0662 58.4304 75.0302 58.5624C74.9942 58.6884 74.9732 58.7574 74.9672 58.7694H75.0032C75.2192 58.5054 75.4532 58.2774 75.7052 58.0854C75.9632 57.8874 76.2602 57.7884 76.5962 57.7884C76.9922 57.7884 77.3102 57.9264 77.5502 58.2024C77.7962 58.4784 77.9192 58.8864 77.9192 59.4264C77.9192 59.8644 77.8652 60.2844 77.7572 60.6864C77.6492 61.0884 77.4932 61.4484 77.2892 61.7664C77.0852 62.0784 76.8392 62.3274 76.5512 62.5134C76.2632 62.6934 75.9362 62.7834 75.5702 62.7834ZM75.5072 62.1264C75.7472 62.1264 75.9662 62.0514 76.1642 61.9014C76.3622 61.7454 76.5302 61.5384 76.6682 61.2804C76.8122 61.0224 76.9202 60.7314 76.9922 60.4074C77.0702 60.0834 77.1092 59.7534 77.1092 59.4174C77.1092 58.7694 76.8542 58.4454 76.3442 58.4454C76.1462 58.4454 75.9422 58.5204 75.7322 58.6704C75.5282 58.8144 75.3392 59.0154 75.1652 59.2734C74.9912 59.5254 74.8502 59.8134 74.7422 60.1374C74.6402 60.4614 74.5892 60.8004 74.5892 61.1544C74.5892 61.4424 74.6642 61.6764 74.8142 61.8564C74.9642 62.0364 75.1952 62.1264 75.5072 62.1264ZM80.5391 62.7834C79.9811 62.7834 79.5491 62.6214 79.2431 62.2974C78.9431 61.9674 78.7931 61.5234 78.7931 60.9654C78.7931 60.5814 78.8471 60.2034 78.9551 59.8314C79.0691 59.4534 79.2311 59.1114 79.4411 58.8054C79.6511 58.4934 79.9031 58.2444 80.1971 58.0584C80.4971 57.8724 80.8331 57.7794 81.2051 57.7794C81.6611 57.7794 82.0031 57.8784 82.2311 58.0764C82.4651 58.2744 82.5821 58.5504 82.5821 58.9044C82.5821 59.2164 82.4831 59.5014 82.2851 59.7594C82.0931 60.0174 81.7901 60.2244 81.3761 60.3804C80.9621 60.5304 80.4251 60.6054 79.7651 60.6054H79.6121C79.6061 60.6594 79.6001 60.7164 79.5941 60.7764C79.5941 60.8364 79.5941 60.8904 79.5941 60.9384C79.5941 61.3044 79.6841 61.5954 79.8641 61.8114C80.0441 62.0214 80.3171 62.1264 80.6831 62.1264C80.9111 62.1264 81.1271 62.0934 81.3311 62.0274C81.5351 61.9614 81.7571 61.8714 81.9971 61.7574V62.4324C81.7691 62.5344 81.5441 62.6184 81.3221 62.6844C81.1061 62.7504 80.8451 62.7834 80.5391 62.7834ZM79.7921 59.9664C80.1521 59.9664 80.4851 59.9364 80.7911 59.8764C81.0971 59.8104 81.3431 59.7054 81.5291 59.5614C81.7151 59.4114 81.8081 59.2134 81.8081 58.9674C81.8081 58.8114 81.7541 58.6854 81.6461 58.5894C81.5441 58.4874 81.3821 58.4364 81.1601 58.4364C80.8721 58.4364 80.5931 58.5714 80.3231 58.8414C80.0591 59.1054 79.8611 59.4804 79.7291 59.9664H79.7921ZM83.1043 62.6934L84.1303 57.8694H84.7783L84.6793 58.7604H84.7243C84.8503 58.5924 84.9823 58.4364 85.1203 58.2924C85.2583 58.1424 85.4143 58.0194 85.5883 57.9234C85.7623 57.8274 85.9633 57.7794 86.1913 57.7794C86.2753 57.7794 86.3623 57.7854 86.4523 57.7974C86.5483 57.8034 86.6353 57.8184 86.7133 57.8424L86.5423 58.5534C86.3803 58.5174 86.2273 58.4994 86.0833 58.4994C85.7833 58.4994 85.5163 58.5984 85.2823 58.7964C85.0483 58.9944 84.8533 59.2464 84.6973 59.5524C84.5413 59.8584 84.4303 60.1704 84.3643 60.4884L83.8963 62.6934H83.1043ZM91.0081 62.7654C90.4501 62.7654 90.0091 62.6004 89.6851 62.2704C89.3671 61.9344 89.2081 61.4814 89.2081 60.9114C89.2081 60.5394 89.2591 60.1704 89.3611 59.8044C89.4631 59.4384 89.6131 59.1054 89.8111 58.8054C90.0151 58.5054 90.2671 58.2654 90.5671 58.0854C90.8731 57.8994 91.2241 57.8064 91.6201 57.8064C92.1841 57.8064 92.6251 57.9744 92.9431 58.3104C93.2611 58.6404 93.4201 59.0934 93.4201 59.6694C93.4201 60.0354 93.3691 60.4014 93.2671 60.7674C93.1651 61.1334 93.0121 61.4664 92.8081 61.7664C92.6101 62.0664 92.3611 62.3094 92.0611 62.4954C91.7611 62.6754 91.4101 62.7654 91.0081 62.7654ZM91.0531 62.1084C91.3411 62.1084 91.6021 62.0094 91.8361 61.8114C92.0701 61.6074 92.2561 61.3164 92.3941 60.9384C92.5381 60.5604 92.6101 60.1074 92.6101 59.5794C92.6101 59.3994 92.5771 59.2254 92.5111 59.0574C92.4511 58.8834 92.3491 58.7424 92.2051 58.6344C92.0611 58.5204 91.8691 58.4634 91.6291 58.4634C91.2991 58.4634 91.0111 58.5774 90.7651 58.8054C90.5251 59.0274 90.3391 59.3274 90.2071 59.7054C90.0751 60.0774 90.0091 60.4884 90.0091 60.9384C90.0091 61.3104 90.0991 61.5984 90.2791 61.8024C90.4651 62.0064 90.7231 62.1084 91.0531 62.1084ZM93.4154 64.8534C93.3014 64.8534 93.1964 64.8444 93.1004 64.8264C93.0044 64.8084 92.9174 64.7874 92.8394 64.7634V64.0974C92.9234 64.1214 93.0044 64.1424 93.0824 64.1604C93.1604 64.1844 93.2474 64.1964 93.3434 64.1964C93.5594 64.1964 93.7274 64.1064 93.8474 63.9264C93.9674 63.7524 94.0634 63.5004 94.1354 63.1704L95.1254 58.4724H94.2884L94.3514 58.1394L95.2514 57.8424L95.3504 57.4104C95.4464 56.9964 95.5634 56.6754 95.7014 56.4474C95.8454 56.2134 96.0224 56.0484 96.2324 55.9524C96.4424 55.8564 96.6944 55.8084 96.9884 55.8084C97.1384 55.8084 97.2914 55.8264 97.4474 55.8624C97.6094 55.8924 97.7384 55.9314 97.8344 55.9794L97.6274 56.5824C97.5434 56.5524 97.4504 56.5254 97.3484 56.5014C97.2524 56.4714 97.1444 56.4564 97.0244 56.4564C96.7904 56.4564 96.6044 56.5224 96.4664 56.6544C96.3344 56.7864 96.2264 57.0384 96.1424 57.4104L96.0344 57.8694H97.0694L96.9524 58.4724H95.9174L94.9094 63.2604C94.8014 63.7584 94.6334 64.1484 94.4054 64.4304C94.1774 64.7124 93.8474 64.8534 93.4154 64.8534ZM99.3025 62.6934L100.329 57.8694H100.977L100.878 58.7604H100.923C101.031 58.6104 101.157 58.4604 101.301 58.3104C101.451 58.1604 101.622 58.0344 101.814 57.9324C102.012 57.8304 102.234 57.7794 102.48 57.7794C102.81 57.7794 103.062 57.8754 103.236 58.0674C103.416 58.2534 103.524 58.5144 103.56 58.8504H103.596C103.716 58.6704 103.857 58.4994 104.019 58.3374C104.187 58.1754 104.373 58.0434 104.577 57.9414C104.781 57.8334 105.006 57.7794 105.252 57.7794C105.624 57.7794 105.912 57.8814 106.116 58.0854C106.32 58.2894 106.422 58.5834 106.422 58.9674C106.422 59.1114 106.413 59.2464 106.395 59.3724C106.377 59.4924 106.353 59.6214 106.323 59.7594L105.702 62.6934H104.901L105.549 59.6694C105.579 59.5314 105.6 59.4144 105.612 59.3184C105.624 59.2224 105.63 59.1294 105.63 59.0394C105.63 58.8594 105.579 58.7154 105.477 58.6074C105.381 58.4994 105.228 58.4454 105.018 58.4454C104.826 58.4454 104.619 58.5174 104.397 58.6614C104.181 58.8054 103.977 59.0304 103.785 59.3364C103.599 59.6364 103.455 60.0294 103.353 60.5154L102.894 62.6934H102.102L102.741 59.6694C102.795 59.3994 102.822 59.2014 102.822 59.0754C102.822 58.8774 102.777 58.7244 102.687 58.6164C102.597 58.5024 102.447 58.4454 102.237 58.4454C102.045 58.4454 101.838 58.5174 101.616 58.6614C101.394 58.7994 101.187 59.0274 100.995 59.3454C100.803 59.6634 100.65 60.0864 100.536 60.6144L100.095 62.6934H99.3025ZM109.158 62.7654C108.6 62.7654 108.159 62.6004 107.835 62.2704C107.517 61.9344 107.358 61.4814 107.358 60.9114C107.358 60.5394 107.409 60.1704 107.511 59.8044C107.613 59.4384 107.763 59.1054 107.961 58.8054C108.165 58.5054 108.417 58.2654 108.717 58.0854C109.023 57.8994 109.374 57.8064 109.77 57.8064C110.334 57.8064 110.775 57.9744 111.093 58.3104C111.411 58.6404 111.57 59.0934 111.57 59.6694C111.57 60.0354 111.519 60.4014 111.417 60.7674C111.315 61.1334 111.162 61.4664 110.958 61.7664C110.76 62.0664 110.511 62.3094 110.211 62.4954C109.911 62.6754 109.56 62.7654 109.158 62.7654ZM109.203 62.1084C109.491 62.1084 109.752 62.0094 109.986 61.8114C110.22 61.6074 110.406 61.3164 110.544 60.9384C110.688 60.5604 110.76 60.1074 110.76 59.5794C110.76 59.3994 110.727 59.2254 110.661 59.0574C110.601 58.8834 110.499 58.7424 110.355 58.6344C110.211 58.5204 110.019 58.4634 109.779 58.4634C109.449 58.4634 109.161 58.5774 108.915 58.8054C108.675 59.0274 108.489 59.3274 108.357 59.7054C108.225 60.0774 108.159 60.4884 108.159 60.9384C108.159 61.3104 108.249 61.5984 108.429 61.8024C108.615 62.0064 108.873 62.1084 109.203 62.1084ZM112.213 62.6934L113.248 57.8424H113.95L113.851 58.7334H113.86C113.974 58.5834 114.106 58.4334 114.256 58.2834C114.412 58.1334 114.592 58.0074 114.796 57.9054C115 57.8034 115.231 57.7524 115.489 57.7524C115.879 57.7524 116.182 57.8604 116.398 58.0764C116.62 58.2864 116.731 58.5834 116.731 58.9674C116.731 59.1054 116.719 59.2464 116.695 59.3904C116.677 59.5344 116.656 59.6604 116.632 59.7684L115.993 62.6934H115.147L115.795 59.6604C115.825 59.5224 115.846 59.4084 115.858 59.3184C115.876 59.2224 115.885 59.1324 115.885 59.0484C115.885 58.6644 115.681 58.4724 115.273 58.4724C115.075 58.4724 114.859 58.5414 114.625 58.6794C114.397 58.8174 114.181 59.0424 113.977 59.3544C113.779 59.6664 113.623 60.0864 113.509 60.6144L113.059 62.6934H112.213ZM118.91 62.7834C118.544 62.7834 118.25 62.6814 118.028 62.4774C117.812 62.2734 117.704 61.9764 117.704 61.5864C117.704 61.4484 117.713 61.3194 117.731 61.1994C117.755 61.0734 117.779 60.9444 117.803 60.8124L118.433 57.8694H119.234L118.586 60.9024C118.532 61.1604 118.505 61.3614 118.505 61.5054C118.505 61.6974 118.553 61.8504 118.649 61.9644C118.751 62.0724 118.913 62.1264 119.135 62.1264C119.339 62.1264 119.558 62.0544 119.792 61.9104C120.032 61.7664 120.254 61.5354 120.458 61.2174C120.662 60.8994 120.821 60.4764 120.935 59.9484L121.376 57.8694H122.159L121.133 62.6934H120.485L120.584 61.8024H120.539C120.425 61.9464 120.29 62.0964 120.134 62.2524C119.984 62.4024 119.807 62.5284 119.603 62.6304C119.405 62.7324 119.174 62.7834 118.91 62.7834ZM122.673 62.6934L123.699 57.8694H124.347L124.248 58.7604H124.293C124.401 58.6104 124.527 58.4604 124.671 58.3104C124.821 58.1604 124.992 58.0344 125.184 57.9324C125.382 57.8304 125.604 57.7794 125.85 57.7794C126.18 57.7794 126.432 57.8754 126.606 58.0674C126.786 58.2534 126.894 58.5144 126.93 58.8504H126.966C127.086 58.6704 127.227 58.4994 127.389 58.3374C127.557 58.1754 127.743 58.0434 127.947 57.9414C128.151 57.8334 128.376 57.7794 128.622 57.7794C128.994 57.7794 129.282 57.8814 129.486 58.0854C129.69 58.2894 129.792 58.5834 129.792 58.9674C129.792 59.1114 129.783 59.2464 129.765 59.3724C129.747 59.4924 129.723 59.6214 129.693 59.7594L129.072 62.6934H128.271L128.919 59.6694C128.949 59.5314 128.97 59.4144 128.982 59.3184C128.994 59.2224 129 59.1294 129 59.0394C129 58.8594 128.949 58.7154 128.847 58.6074C128.751 58.4994 128.598 58.4454 128.388 58.4454C128.196 58.4454 127.989 58.5174 127.767 58.6614C127.551 58.8054 127.347 59.0304 127.155 59.3364C126.969 59.6364 126.825 60.0294 126.723 60.5154L126.264 62.6934H125.472L126.111 59.6694C126.165 59.3994 126.192 59.2014 126.192 59.0754C126.192 58.8774 126.147 58.7244 126.057 58.6164C125.967 58.5024 125.817 58.4454 125.607 58.4454C125.415 58.4454 125.208 58.5174 124.986 58.6614C124.764 58.7994 124.557 59.0274 124.365 59.3454C124.173 59.6634 124.02 60.0864 123.906 60.6144L123.465 62.6934H122.673ZM132.474 62.7834C131.916 62.7834 131.484 62.6214 131.178 62.2974C130.878 61.9674 130.728 61.5234 130.728 60.9654C130.728 60.5814 130.782 60.2034 130.89 59.8314C131.004 59.4534 131.166 59.1114 131.376 58.8054C131.586 58.4934 131.838 58.2444 132.132 58.0584C132.432 57.8724 132.768 57.7794 133.14 57.7794C133.596 57.7794 133.938 57.8784 134.166 58.0764C134.4 58.2744 134.517 58.5504 134.517 58.9044C134.517 59.2164 134.418 59.5014 134.22 59.7594C134.028 60.0174 133.725 60.2244 133.311 60.3804C132.897 60.5304 132.36 60.6054 131.7 60.6054H131.547C131.541 60.6594 131.535 60.7164 131.529 60.7764C131.529 60.8364 131.529 60.8904 131.529 60.9384C131.529 61.3044 131.619 61.5954 131.799 61.8114C131.979 62.0214 132.252 62.1264 132.618 62.1264C132.846 62.1264 133.062 62.0934 133.266 62.0274C133.47 61.9614 133.692 61.8714 133.932 61.7574V62.4324C133.704 62.5344 133.479 62.6184 133.257 62.6844C133.041 62.7504 132.78 62.7834 132.474 62.7834ZM131.727 59.9664C132.087 59.9664 132.42 59.9364 132.726 59.8764C133.032 59.8104 133.278 59.7054 133.464 59.5614C133.65 59.4114 133.743 59.2134 133.743 58.9674C133.743 58.8114 133.689 58.6854 133.581 58.5894C133.479 58.4874 133.317 58.4364 133.095 58.4364C132.807 58.4364 132.528 58.5714 132.258 58.8414C131.994 59.1054 131.796 59.4804 131.664 59.9664H131.727ZM135.003 62.6934L136.038 57.8424H136.74L136.641 58.7334H136.65C136.764 58.5834 136.896 58.4334 137.046 58.2834C137.202 58.1334 137.382 58.0074 137.586 57.9054C137.79 57.8034 138.021 57.7524 138.279 57.7524C138.669 57.7524 138.972 57.8604 139.188 58.0764C139.41 58.2864 139.521 58.5834 139.521 58.9674C139.521 59.1054 139.509 59.2464 139.485 59.3904C139.467 59.5344 139.446 59.6604 139.422 59.7684L138.783 62.6934H137.937L138.585 59.6604C138.615 59.5224 138.636 59.4084 138.648 59.3184C138.666 59.2224 138.675 59.1324 138.675 59.0484C138.675 58.6644 138.471 58.4724 138.063 58.4724C137.865 58.4724 137.649 58.5414 137.415 58.6794C137.187 58.8174 136.971 59.0424 136.767 59.3544C136.569 59.6664 136.413 60.0864 136.299 60.6144L135.849 62.6934H135.003ZM141.664 62.7834C141.34 62.7834 141.067 62.7054 140.845 62.5494C140.623 62.3934 140.512 62.1204 140.512 61.7304C140.512 61.5384 140.539 61.3254 140.593 61.0914L141.142 58.4724H140.395L140.467 58.1124L141.277 57.7704L141.835 56.7714H142.303L142.06 57.8694H143.275L143.149 58.4724H141.943L141.385 61.1004C141.367 61.1784 141.349 61.2684 141.331 61.3704C141.313 61.4664 141.304 61.5564 141.304 61.6404C141.304 61.7784 141.34 61.8954 141.412 61.9914C141.49 62.0874 141.613 62.1354 141.781 62.1354C141.889 62.1354 141.994 62.1264 142.096 62.1084C142.198 62.0844 142.306 62.0544 142.42 62.0184V62.6214C142.348 62.6574 142.237 62.6934 142.087 62.7294C141.937 62.7654 141.796 62.7834 141.664 62.7834ZM144.382 62.7834C144.088 62.7834 143.83 62.7534 143.608 62.6934C143.392 62.6394 143.2 62.5674 143.032 62.4774V61.7484C143.188 61.8444 143.383 61.9344 143.617 62.0184C143.857 62.0964 144.103 62.1354 144.355 62.1354C144.709 62.1354 144.979 62.0664 145.165 61.9284C145.351 61.7844 145.444 61.6014 145.444 61.3794C145.444 61.2054 145.387 61.0614 145.273 60.9474C145.159 60.8274 144.946 60.6804 144.634 60.5064C144.292 60.3144 144.034 60.1164 143.86 59.9124C143.686 59.7084 143.599 59.4534 143.599 59.1474C143.599 58.7394 143.746 58.4094 144.04 58.1574C144.34 57.9054 144.739 57.7794 145.237 57.7794C145.531 57.7794 145.801 57.8154 146.047 57.8874C146.299 57.9534 146.515 58.0284 146.695 58.1124L146.443 58.7424C146.287 58.6704 146.113 58.6044 145.921 58.5444C145.729 58.4784 145.501 58.4454 145.237 58.4454C144.979 58.4454 144.772 58.5084 144.616 58.6344C144.466 58.7544 144.391 58.9104 144.391 59.1024C144.391 59.2584 144.442 59.3964 144.544 59.5164C144.652 59.6304 144.865 59.7744 145.183 59.9484C145.387 60.0684 145.57 60.1884 145.732 60.3084C145.894 60.4284 146.02 60.5664 146.11 60.7224C146.206 60.8784 146.254 61.0704 146.254 61.2984C146.254 61.7844 146.083 62.1534 145.741 62.4054C145.405 62.6574 144.952 62.7834 144.382 62.7834Z" fill="black"/>
</g>
<defs>
<clipPath id="clip0_885_37090">
<rect width="147.784" height="65" fill="white" transform="translate(0.429749 0.693359)"/>
</clipPath>
<clipPath id="clip1_885_37090">
<rect width="40.219" height="8" fill="white" transform="translate(7.53973 55.6934)"/>
</clipPath>
</defs>
</svg>
