<svg width="100" height="110" viewBox="0 0 100 110" fill="none" xmlns="http://www.w3.org/2000/svg">
<g clip-path="url(#clip0_769_36714)">
<line x1="50.5" y1="52.5" x2="50.5" y2="64.5" stroke="black" stroke-linecap="round" stroke-dasharray="1 3"/>
<line x1="11.2903" y1="52.5" x2="11.2903" y2="64.5" stroke="black" stroke-linecap="round" stroke-dasharray="1 3"/>
<line x1="50.5" y1="83.5" x2="50.5" y2="109.5" stroke="black" stroke-linecap="round" stroke-dasharray="1 3"/>
<line x1="11.2903" y1="83.5" x2="11.2903" y2="108.5" stroke="black" stroke-linecap="round" stroke-dasharray="1 3"/>
<path d="M50.3551 100.189C50.5495 99.9928 50.5481 99.6763 50.352 99.4818L47.1564 96.3136C46.9603 96.1192 46.6437 96.1205 46.4493 96.3166C46.2549 96.5127 46.2562 96.8293 46.4523 97.0237L49.2929 99.84L46.4767 102.681C46.2822 102.877 46.2836 103.193 46.4797 103.388C46.6758 103.582 46.9924 103.581 47.1868 103.385L50.3551 100.189ZM11.9155 99.6471C11.721 99.8432 11.7224 100.16 11.9185 100.354L15.1141 103.523C15.3102 103.717 15.6268 103.716 15.8212 103.519C16.0157 103.323 16.0143 103.007 15.8182 102.812L12.9776 99.9961L15.7939 97.1556C15.9883 96.9595 15.9869 96.6429 15.7908 96.4485C15.5947 96.254 15.2781 96.2554 15.0837 96.4515L11.9155 99.6471ZM49.9978 99.3369L12.2684 99.4992L12.2727 100.499L50.0022 100.337L49.9978 99.3369Z" fill="#808080"/>
<path d="M16.5906 29.0548L45.4666 49.5979L11.2364 40.4257C12.428 36.3722 14.2252 32.5556 16.5906 29.0548ZM16.3456 27.6533C13.4443 31.7315 11.2953 36.2954 10 41.1297L50.5685 52.0002L16.3456 27.6533V27.6533Z" fill="black"/>
<path d="M27.4624 17.5275L48.6327 49.9498L17.4772 26.9559C20.2664 23.2694 23.6222 20.1008 27.4624 17.5275M27.6061 16.833C23.4154 19.5693 19.7476 23.0326 16.7756 27.0595L50.5684 51.9999L27.6061 16.833V16.833Z" fill="#999999"/>
<path d="M41.6538 11.469L49.5155 49.3842L28.9143 16.5976C32.8576 14.185 37.1389 12.4614 41.6538 11.469M42.0413 10.875C37.1407 11.8911 32.4611 13.775 28.2234 16.4377L50.5685 51.9998L42.0413 10.875V10.875Z" fill="#999999"/>
<path d="M50.5685 10.5C52.7419 10.5 54.929 10.6727 57.0776 11.0137L50.5438 49.18L43.3451 11.1335C45.7254 10.713 48.1528 10.5 50.5685 10.5ZM50.5685 10C47.9536 10 45.3397 10.2441 42.7603 10.7322L50.5684 51.9995L57.6553 10.6022C55.3098 10.2007 52.9387 10 50.5684 10H50.5685Z" fill="#999999"/>
<path d="M58.7744 11.3196C63.3059 12.233 67.6167 13.8816 71.6015 16.2251L51.5756 49.3663L58.7744 11.3196ZM58.3766 10.7324L50.5685 51.9999V51.9999L72.2895 16.0532C68.0059 13.4648 63.2942 11.6629 58.3766 10.7324H58.3766Z" fill="#999999"/>
<path d="M73.0694 17.1294C76.954 19.6352 80.3644 22.7448 83.2174 26.382L52.4682 49.9158L73.0694 17.1294ZM72.9137 16.4375L50.5685 51.9994L83.9207 26.4734C80.879 22.499 77.1514 19.1002 72.9137 16.4375V16.4375Z" fill="#999999"/>
<path d="M84.2538 27.7606C86.9542 31.5124 88.9927 35.653 90.3195 40.0811L53.0981 50.7547L84.2538 27.7606ZM84.3616 27.0596L50.5685 52.0002L90.9407 40.4231C89.5615 35.6121 87.3334 31.0864 84.3615 27.0596L84.3616 27.0596Z" fill="#999999"/>
<path d="M41.8706 6.84331C41.6039 6.91478 41.4456 7.18895 41.517 7.45568C41.5885 7.72241 41.8627 7.8807 42.1294 7.80923L41.8706 6.84331ZM59.4231 7.94734C59.6702 7.82398 59.7705 7.5237 59.6471 7.27664L57.6369 3.25059C57.5135 3.00354 57.2133 2.90325 56.9662 3.02661C56.7191 3.14997 56.6189 3.45025 56.7422 3.69731L58.5291 7.27602L54.9504 9.06286C54.7033 9.18622 54.603 9.4865 54.7264 9.73356C54.8497 9.98062 55.15 10.0809 55.3971 9.95754L59.4231 7.94734ZM59.3581 7.02575C53.5626 5.09029 48.1723 5.15477 41.8706 6.84331L42.1294 7.80923C48.2769 6.16203 53.4636 6.11151 59.0414 7.97425L59.3581 7.02575Z" fill="black"/>
<path d="M18.3536 37.3536C18.5488 37.1583 18.5488 36.8417 18.3536 36.6464L15.1716 33.4645C14.9763 33.2692 14.6597 33.2692 14.4645 33.4645C14.2692 33.6597 14.2692 33.9763 14.4645 34.1716L17.2929 37L14.4645 39.8284C14.2692 40.0237 14.2692 40.3403 14.4645 40.5355C14.6597 40.7308 14.9763 40.7308 15.1716 40.5355L18.3536 37.3536ZM-0.5 0V32H0.5V0H-0.5ZM5 37.5H18V36.5H5V37.5ZM-0.5 32C-0.5 35.0376 1.96243 37.5 5 37.5V36.5C2.51472 36.5 0.5 34.4853 0.5 32H-0.5Z" fill="black"/>
<path d="M99.6464 -0.353553C99.8417 -0.548816 100.158 -0.548816 100.354 -0.353553L103.536 2.82843C103.731 3.02369 103.731 3.34027 103.536 3.53553C103.34 3.7308 103.024 3.7308 102.828 3.53553L100 0.707107L97.1716 3.53553C96.9763 3.7308 96.6597 3.7308 96.4645 3.53553C96.2692 3.34027 96.2692 3.02369 96.4645 2.82843L99.6464 -0.353553ZM100.5 7.89708e-08L100.5 32L99.5 32L99.5 -7.89708e-08L100.5 7.89708e-08ZM95 37.5L84 37.5L84 36.5L95 36.5L95 37.5ZM100.5 32C100.5 35.0376 98.0376 37.5 95 37.5L95 36.5C97.4853 36.5 99.5 34.4853 99.5 32L100.5 32Z" fill="black"/>
</g>
<defs>
<clipPath id="clip0_769_36714">
<rect width="100" height="110" fill="white"/>
</clipPath>
</defs>
</svg>
